<?xml version="1.0" encoding="UTF-8" standalone="no"?>
<!DOCTYPE svg PUBLIC "-//W3C//DTD SVG 1.1//EN" "http://www.w3.org/Graphics/SVG/1.1/DTD/svg11.dtd">
<svg width="100%" height="100%" viewBox="0 0 597 755" version="1.1" xmlns="http://www.w3.org/2000/svg" xmlns:xlink="http://www.w3.org/1999/xlink" xml:space="preserve" xmlns:serif="http://www.serif.com/" style="fill-rule:evenodd;clip-rule:evenodd;stroke-linejoin:round;stroke-miterlimit:2;">
    <g transform="matrix(1,0,0,1,-1820.738702,-158.75338)">
        <g transform="matrix(0.81537,0,0,0.81537,1531.465887,4.822938)">
            <path d="M354.775,583.803C344.163,583.742 335.505,575.26 335.239,564.637C335.158,561.379 335.117,558.111 335.117,554.834C335.117,341.957 507.946,169.128 720.822,169.128C933.699,169.128 1106.528,341.957 1106.528,554.834C1106.528,557.984 1106.49,561.126 1106.415,564.259L1106.528,564.146L1106.528,1022.975C1106.528,1084.332 1056.715,1134.145 995.358,1134.145C957.43,1134.145 923.913,1115.11 903.846,1086.081C883.78,1115.11 850.263,1134.145 812.334,1134.145C774.406,1134.145 740.889,1115.11 720.822,1086.081C700.756,1115.11 667.239,1134.145 629.311,1134.145C591.382,1134.145 557.865,1115.11 537.799,1086.081C517.732,1115.11 484.215,1134.145 446.287,1134.145C384.93,1134.145 335.117,1084.332 335.117,1022.976L335.117,564.146C335.117,575.002 343.918,583.803 354.775,583.803ZM1086.87,583.803L1091.464,579.21L1086.87,583.69L1086.87,583.803ZM537.799,534.027C498.141,534.027 465.945,566.223 465.945,605.881C465.945,645.538 498.141,677.735 537.799,677.735C577.456,677.735 609.653,645.538 609.653,605.881C609.653,566.223 577.456,534.027 537.799,534.027ZM903.846,534.027C864.189,534.027 831.992,566.223 831.992,605.881C831.992,645.538 864.189,677.735 903.846,677.735C943.504,677.735 975.7,645.538 975.7,605.881C975.7,566.223 943.504,534.027 903.846,534.027Z" style="fill:rgb(17,17,15);"/>
            <clipPath id="_clip1">
                <path d="M354.775,583.803C344.163,583.742 335.505,575.26 335.239,564.637C335.158,561.379 335.117,558.111 335.117,554.834C335.117,341.957 507.946,169.128 720.822,169.128C933.699,169.128 1106.528,341.957 1106.528,554.834C1106.528,557.984 1106.49,561.126 1106.415,564.259L1106.528,564.146L1106.528,1022.975C1106.528,1084.332 1056.715,1134.145 995.358,1134.145C957.43,1134.145 923.913,1115.11 903.846,1086.081C883.78,1115.11 850.263,1134.145 812.334,1134.145C774.406,1134.145 740.889,1115.11 720.822,1086.081C700.756,1115.11 667.239,1134.145 629.311,1134.145C591.382,1134.145 557.865,1115.11 537.799,1086.081C517.732,1115.11 484.215,1134.145 446.287,1134.145C384.93,1134.145 335.117,1084.332 335.117,1022.976L335.117,564.146C335.117,575.002 343.918,583.803 354.775,583.803ZM1086.87,583.803L1091.464,579.21L1086.87,583.69L1086.87,583.803ZM537.799,534.027C498.141,534.027 465.945,566.223 465.945,605.881C465.945,645.538 498.141,677.735 537.799,677.735C577.456,677.735 609.653,645.538 609.653,605.881C609.653,566.223 577.456,534.027 537.799,534.027ZM903.846,534.027C864.189,534.027 831.992,566.223 831.992,605.881C831.992,645.538 864.189,677.735 903.846,677.735C943.504,677.735 975.7,645.538 975.7,605.881C975.7,566.223 943.504,534.027 903.846,534.027Z"/>
            </clipPath>
            <g clip-path="url(#_clip1)">
                <path d="M354.775,1022.975L354.775,564.146L354.891,564.146C354.814,561.051 354.775,557.947 354.775,554.834C354.775,352.806 518.795,188.786 720.822,188.786C922.85,188.786 1086.87,352.806 1086.87,554.834C1086.87,557.947 1086.831,561.051 1086.754,564.146L1086.87,564.146L1086.87,1022.975C1086.87,1073.482 1045.865,1114.487 995.358,1114.487C944.851,1114.487 903.846,1073.482 903.846,1022.975C903.846,1073.482 862.841,1114.487 812.334,1114.487C761.828,1114.487 720.822,1073.482 720.822,1022.975C720.822,1073.482 679.817,1114.487 629.311,1114.487C578.804,1114.487 537.799,1073.482 537.799,1022.975C537.799,1073.482 496.794,1114.487 446.287,1114.487C395.78,1114.487 354.775,1073.482 354.775,1022.975ZM537.799,514.369C487.292,514.369 446.287,555.374 446.287,605.881C446.287,656.388 487.292,697.393 537.799,697.393C588.305,697.393 629.311,656.388 629.311,605.881C629.311,555.374 588.305,514.369 537.799,514.369ZM903.846,514.369C853.34,514.369 812.334,555.374 812.334,605.881C812.334,656.388 853.34,697.393 903.846,697.393C954.353,697.393 995.358,656.388 995.358,605.881C995.358,555.374 954.353,514.369 903.846,514.369Z" style="fill:rgb(233,226,212);"/>
            </g>
        </g>
    </g>
</svg>
